<?xml version="1.0" encoding="utf-8"?>
<!-- Generator: Adobe Illustrator 17.0.2, SVG Export Plug-In . SVG Version: 6.00 Build 0)  -->
<!DOCTYPE svg PUBLIC "-//W3C//DTD SVG 1.1//EN" "http://www.w3.org/Graphics/SVG/1.1/DTD/svg11.dtd">
<svg version="1.1" id="Layer_1" xmlns="http://www.w3.org/2000/svg" xmlns:xlink="http://www.w3.org/1999/xlink" x="0px" y="0px"
	 width="376px" height="66.001px" viewBox="0 0 376 66.001" enable-background="new 0 0 376 66.001" xml:space="preserve">
<rect x="497.448" y="-59.326" display="none" width="460" height="200"/>
<g>
	<path fill="#29292A" d="M31.499,64.832v-5.151c-3.5,4.083-9.042,6.319-15.262,6.319C8.652,66.001,0,60.749,0,50.447
		c0-10.886,8.555-15.358,16.236-15.358c6.415,0,11.762,2.043,15.262,6.027v-7c0-5.441-4.57-8.747-10.987-8.747
		c-5.249,0-9.916,1.944-13.901,6.027L2.333,24.3c5.444-5.249,12.249-7.581,19.736-7.581c10.499,0,19.638,4.374,19.638,16.912v31.202
		H31.499z M31.499,54.141V46.95c-2.43-3.209-6.805-4.86-11.181-4.86c-5.736,0-10.11,3.4-10.11,8.456
		c0,5.151,4.375,8.457,10.11,8.457C24.693,59.002,29.068,57.348,31.499,54.141z"/>
	<path fill="#29292A" d="M48.332,64.832V0h10.208v24.398c3.791-5.055,9.235-7.679,15.068-7.679c12.151,0,20.901,9.428,20.901,24.592
		c0,15.553-8.848,24.69-20.901,24.69c-6.028,0-11.472-2.917-15.068-7.581v6.413H48.332z M70.692,56.96
		c8.068,0,13.22-6.514,13.22-15.649c0-9.039-5.152-15.552-13.22-15.552c-4.862,0-9.818,2.818-12.151,6.318v18.664
		C60.874,54.238,65.83,56.96,70.692,56.96z"/>
	<path fill="#29292A" d="M100.113,41.311c0-13.511,9.138-24.592,24.11-24.592c14.97,0,24.109,11.081,24.109,24.592
		c0,13.413-9.14,24.69-24.109,24.69C109.251,66.001,100.113,54.724,100.113,41.311z M137.735,41.311
		c0-8.263-4.763-15.552-13.512-15.552c-8.653,0-13.513,7.29-13.513,15.552c0,8.358,4.86,15.649,13.513,15.649
		C132.972,56.96,137.735,49.669,137.735,41.311z"/>
	<path fill="#29292A" d="M185.718,64.832v-6.22c-3.307,3.692-9.139,7.388-16.526,7.388c-10.112,0-15.167-5.347-15.167-14.872V17.885
		h10.207v29.454c0,7.287,3.695,9.622,9.529,9.622c5.152,0,9.624-3.015,11.958-6.125V17.885h10.206v46.948H185.718z"/>
	<path fill="#29292A" d="M210.343,53.85V26.731h-7.777v-8.847h7.777V5.054h10.208v12.831h9.527v8.847h-9.527v24.59
		c0,3.208,1.557,5.639,4.474,5.639c1.944,0,3.692-0.875,4.47-1.751l2.433,7.778c-1.849,1.651-4.861,3.013-9.529,3.013
		C214.427,66.001,210.343,61.721,210.343,53.85z"/>
	<path fill="#E37F1C" d="M236.813,59.002c0-3.598,3.111-6.706,6.805-6.706c3.694,0,6.807,3.108,6.807,6.706
		c0,3.691-3.112,6.901-6.807,6.901C239.924,65.904,236.813,62.693,236.813,59.002z"/>
	<path fill="#EEB111" d="M313.238,64.832V34.215c0-5.054-2.236-8.456-7.776-8.456c-4.568,0-8.848,3.11-10.889,6.221v32.852h-10.208
		V34.215c0-5.054-2.14-8.456-7.682-8.456c-4.568,0-8.748,3.206-10.889,6.221v32.852h-10.205V17.885h10.205v6.319
		c2.045-2.82,8.169-7.485,15.363-7.485c6.997,0,11.276,3.499,12.832,8.554c2.624-4.18,8.847-8.554,15.941-8.554
		c8.558,0,13.515,4.665,13.515,14.191v33.922H313.238z"/>
	<path fill="#EEB111" d="M329.141,41.311c0-13.609,9.917-24.592,23.817-24.592C367.053,16.719,376,27.41,376,42.185v2.527h-36.166
		c0.779,7.001,6.027,12.929,14.875,12.929c4.667,0,10.013-1.849,13.416-5.251l4.664,6.707c-4.764,4.474-11.667,6.903-19.053,6.903
		C339.542,66.001,329.141,56.182,329.141,41.311z M352.862,25.079c-8.651,0-12.736,6.708-13.124,12.344h26.443
		C365.887,31.882,362.096,25.079,352.862,25.079z"/>
</g>
</svg>
